<?xml version="1.0" encoding="UTF-8"?>
<!--Generator: Apple Native CoreSVG 175.5-->
<!DOCTYPE svg
PUBLIC "-//W3C//DTD SVG 1.1//EN"
       "http://www.w3.org/Graphics/SVG/1.1/DTD/svg11.dtd">
<svg version="1.1" xmlns="http://www.w3.org/2000/svg" xmlns:xlink="http://www.w3.org/1999/xlink" width="74.7925" height="45.7886">
 <g>
  <rect height="45.7886" opacity="0" width="74.7925" x="0" y="0"/>
  <path d="M3.03467 43.6938L50.2197 43.6938C49.4678 42.4854 49.0381 41.062 48.9844 39.397C48.9844 38.7793 48.9575 38.1885 48.9575 37.5708L3.03467 37.5708C1.36963 37.5708 0 38.9404 0 40.6323C0 42.3242 1.36963 43.6938 3.03467 43.6938ZM8.91602 39.585L13.2397 39.585L13.2397 6.90186C13.2397 5.18311 14.0991 4.32373 15.8179 4.32373L68.2666 4.32373C68.0786 1.47705 66.333 0 63.3521 0L14.6631 0C11.1182 0 8.91602 1.93359 8.91602 5.69336ZM57.3096 44.043L69.5557 44.043C72.8857 44.043 74.7925 42.2168 74.7925 39.021L74.7925 12.2729C74.7925 9.07715 72.8589 7.22412 69.5557 7.22412L57.3096 7.22412C53.9795 7.22412 52.0728 9.07715 52.0728 12.2729L52.0728 39.021C52.0728 42.2168 53.9795 44.043 57.3096 44.043ZM57.3633 40.5249C56.1816 40.5249 55.5908 39.8804 55.5908 38.6719L55.5908 12.6221C55.5908 11.3867 56.1816 10.7422 57.3633 10.7422L69.4751 10.7422C70.6567 10.7422 71.2744 11.3867 71.2744 12.6221L71.2744 38.6719C71.2744 39.8804 70.6567 40.5249 69.4751 40.5249ZM59.7534 39.1553L67.0581 39.1553C67.5952 39.1553 67.998 38.7793 67.998 38.2153C67.998 37.7051 67.5952 37.3022 67.0581 37.3022L59.7534 37.3022C59.2163 37.3022 58.8672 37.7051 58.8672 38.2153C58.8672 38.8062 59.1895 39.1553 59.7534 39.1553ZM61.2842 14.6631L65.5005 14.6631C66.1987 14.6631 66.7358 14.0991 66.7358 13.4009C66.7358 12.7295 66.1987 12.1924 65.5005 12.1924L61.2842 12.1924C60.5591 12.1924 60.0488 12.7295 60.0488 13.4009C60.0488 14.0991 60.5591 14.6631 61.2842 14.6631Z" fill="#ffffff" fill-opacity="0.85"/>
 </g>
</svg>
