<svg width="18" height="18" viewBox="0 0 18 18" fill="none" xmlns="http://www.w3.org/2000/svg">
<path d="M2.29289 2.29289C2.68342 1.90237 3.31658 1.90237 3.70711 2.29289L9 7.58579L14.2929 2.29289C14.6834 1.90237 15.3166 1.90237 15.7071 2.29289C16.0976 2.68342 16.0976 3.31658 15.7071 3.70711L10.4142 9L15.7071 14.2929C16.0976 14.6834 16.0976 15.3166 15.7071 15.7071C15.3166 16.0976 14.6834 16.0976 14.2929 15.7071L9 10.4142L3.70711 15.7071C3.31658 16.0976 2.68342 16.0976 2.29289 15.7071C1.90237 15.3166 1.90237 14.6834 2.29289 14.2929L7.58579 9L2.29289 3.70711C1.90237 3.31658 1.90237 2.68342 2.29289 2.29289Z" fill="white"/>
</svg>
