<svg width="30" height="34" viewBox="0 0 30 34" fill="none" xmlns="http://www.w3.org/2000/svg">
<path fill-rule="evenodd" clip-rule="evenodd" d="M21 27.5895H9C8.50294 27.5895 8.1 27.1866 8.1 26.6895V23.6895C8.1 23.4508 8.19482 23.2219 8.3636 23.0531L16.5151 14.9017L16.5195 14.8972L16.5353 14.8815C16.6668 14.7499 16.801 14.6157 16.925 14.5104C17.0631 14.3932 17.2467 14.2599 17.4902 14.1808C17.8215 14.0731 18.1785 14.0731 18.5099 14.1808C18.7533 14.2598 18.9368 14.3931 19.0748 14.5102C19.1988 14.6154 19.3327 14.7494 19.4641 14.8809L20.8068 16.2235C20.9388 16.3555 21.0732 16.4899 21.1787 16.6141C21.296 16.7523 21.4295 16.9361 21.5086 17.1797C21.6163 17.5112 21.6163 17.8681 21.5086 18.1995C21.4295 18.443 21.2962 18.6266 21.1789 18.7648C21.0735 18.8889 20.9392 19.0231 20.8074 19.1549L14.1728 25.7895H21C21.4971 25.7895 21.9 26.1925 21.9 26.6895C21.9 27.1866 21.4971 27.5895 21 27.5895ZM17.9761 15.9878L18 15.9649L18.0235 15.9875C18.0755 16.0379 18.1348 16.0972 18.2102 16.1725L19.5151 17.4774C19.5908 17.5531 19.6503 17.6127 19.7009 17.6649L19.7246 17.6895L19.7013 17.7138C19.6525 17.7642 19.5954 17.8214 19.5234 17.8934L19.5157 17.901L18 19.4167L16.2728 17.6895L17.7847 16.1776L17.7879 16.1744L17.7892 16.1732C17.8647 16.0977 17.924 16.0383 17.9761 15.9878ZM15 18.9623L16.7272 20.6895L11.6272 25.7895L9.9 25.7895V24.0623L15 18.9623Z" fill="#3F405F"/>
<path fill-rule="evenodd" clip-rule="evenodd" d="M9 1C9 0.447715 8.55229 0 8 0C7.44772 0 7 0.447715 7 1V3.5L6.55822 3.5C5.61389 3.49999 4.84448 3.49998 4.21978 3.551C3.5742 3.60373 2.99553 3.7159 2.45666 3.99047C1.60993 4.4219 0.921902 5.10992 0.490472 5.95665C0.215903 6.49553 0.103734 7.0742 0.0510052 7.71978C-1.83284e-05 8.34447 -9.96986e-06 9.11387 2.89808e-07 10.0582V26.9425C-9.96986e-06 27.8868 -1.8321e-05 28.6559 0.0510087 29.2803C0.103752 29.9257 0.215954 30.504 0.490472 31.0428C0.921615 31.889 1.60936 32.5782 2.45666 33.0099C2.99512 33.2843 3.57328 33.3964 4.21802 33.449C4.84188 33.5 5.61005 33.5 6.55247 33.5H23.4475C24.3899 33.5 25.1578 33.5 25.7813 33.449C26.4259 33.3963 27.0036 33.2842 27.5419 33.0099C28.3881 32.5787 29.0782 31.89 29.5099 31.0428C29.7842 30.5044 29.8963 29.9267 29.949 29.2822C30 28.6586 30 27.8908 30 26.9484V10.0525C30 9.11005 30 8.34187 29.949 7.71802C29.8963 7.07328 29.7843 6.49512 29.5099 5.95665C29.0779 5.10884 28.3876 4.42135 27.5419 3.99047C27.0032 3.71599 26.4252 3.60376 25.7799 3.55101C25.1557 3.49998 24.3868 3.49999 23.4425 3.5L23 3.5V1C23 0.447715 22.5523 0 22 0C21.4477 0 21 0.447715 21 1V3.5H9V1ZM2 12.5H28V26.9063C28 27.9009 27.9992 28.5868 27.9557 29.1192C27.9131 29.6398 27.8347 29.9252 27.7279 30.1348C27.4885 30.6047 27.1049 30.9879 26.6339 31.2279C26.4243 31.3347 26.139 31.4131 25.6183 31.4557C25.0859 31.4992 24.4001 31.5 23.4054 31.5H6.59459C5.59993 31.5 4.91369 31.4992 4.38092 31.4557C3.85977 31.4131 3.57413 31.3346 3.36464 31.2279C2.8948 30.9885 2.51246 30.6058 2.27249 30.1348C2.16553 29.9249 2.08699 29.639 2.04436 29.1174C2.00078 28.5841 2 27.8969 2 26.9003V12.5Z" fill="#3F405F"/>
</svg>
